<svg xmlns="http://www.w3.org/2000/svg" xmlns:xlink="http://www.w3.org/1999/xlink" width="500" zoomAndPan="magnify" viewBox="0 0 375 374.999991" height="500" preserveAspectRatio="xMidYMid meet" version="1.0"><defs><g/><clipPath id="6be3f31113"><path d="M 83.542969 75.6875 L 291.457031 75.6875 L 291.457031 81.925781 L 83.542969 81.925781 Z M 285.289062 81.925781 L 291.457031 81.925781 L 291.457031 277.433594 L 285.289062 277.433594 Z M 83.542969 81.925781 L 89.78125 81.925781 L 89.78125 277.433594 L 83.542969 277.433594 Z M 83.542969 277.433594 L 291.457031 277.433594 L 291.457031 283.601562 L 83.542969 283.601562 Z M 83.542969 277.433594 " clip-rule="nonzero"/></clipPath></defs><g clip-path="url(#6be3f31113)"><path fill="#a40320" d="M 83.542969 75.6875 L 291.457031 75.6875 L 291.457031 283.601562 L 83.542969 283.601562 Z M 83.542969 75.6875 " fill-opacity="1" fill-rule="nonzero"/></g><g fill="#a40320" fill-opacity="1"><g transform="translate(128.306595, 245.758727)"><g><path d="M 92.765625 0 L 42.09375 -60.765625 L 35.21875 -60.765625 L 35.21875 0 L 14.171875 0 L 14.171875 -128.828125 L 35.21875 -128.828125 L 35.21875 -79.65625 L 42.515625 -79.65625 L 89.328125 -128.828125 L 117.03125 -128.828125 L 59.90625 -70.4375 L 121.328125 0 Z M 92.765625 0 "/></g></g></g></svg>